<?xml version="1.0" standalone="no"?>
<!DOCTYPE svg PUBLIC "-//W3C//DTD SVG 20010904//EN"
 "http://www.w3.org/TR/2001/REC-SVG-20010904/DTD/svg10.dtd">
<svg version="1.0" xmlns="http://www.w3.org/2000/svg"
 width="240.000000pt" height="240.000000pt" viewBox="0 0 240.000000 240.000000"
 preserveAspectRatio="xMidYMid meet">
<metadata>
Created by potrace 1.16, written by Peter Selinger 2001-2019
</metadata>
<g transform="translate(0.000000,240.000000) scale(0.100000,-0.100000)"
fill="#000000" stroke="none">
<path d="M1065 1945 c-200 -37 -376 -151 -489 -318 -104 -154 -151 -342 -128
-517 39 -292 226 -525 500 -623 318 -115 679 1 873 281 181 261 181 603 0 864
-169 244 -466 367 -756 313z m449 -474 c91 -60 88 -199 -6 -247 -97 -50 -208
16 -208 123 0 55 22 98 63 123 42 26 113 26 151 1z m-380 -17 c9 -3 49 -47 88
-98 39 -50 100 -124 135 -164 57 -66 77 -99 54 -90 -14 5 -102 107 -186 213
-43 55 -85 106 -93 113 -20 15 -344 17 -373 2 -22 -12 -26 -59 -7 -78 8 -8 59
-12 164 -12 l152 0 37 -45 c20 -25 35 -50 33 -55 -6 -19 -152 -139 -161 -133
-6 3 23 36 63 73 l74 66 -30 37 -29 37 -152 0 -152 0 -20 26 c-27 35 -26 59 4
89 24 25 26 25 204 25 99 0 187 -3 195 -6z m-191 -358 c18 -7 43 -25 56 -40
32 -34 61 -33 96 4 59 61 139 63 204 4 47 -42 69 -43 106 -4 58 61 139 63 203
6 20 -18 47 -36 59 -40 31 -10 46 -32 39 -60 -12 -50 -87 -45 -140 10 -41 42
-64 43 -101 4 -60 -62 -150 -64 -208 -5 -42 43 -65 44 -102 5 -60 -62 -150
-64 -208 -5 -42 43 -65 44 -102 5 -55 -57 -138 -65 -151 -13 -5 20 -2 31 16
45 12 10 28 18 34 18 7 0 23 12 37 26 46 50 104 65 162 40z"/>
<path d="M1374 1451 c-39 -24 -58 -69 -51 -124 19 -143 237 -122 237 23 0 93
-105 150 -186 101z"/>
<path d="M863 1083 c-12 -2 -40 -22 -62 -44 -23 -21 -50 -39 -60 -39 -23 0
-34 -25 -18 -38 21 -18 66 -1 107 39 22 22 49 39 60 39 11 0 37 -16 58 -35 74
-66 127 -67 192 -4 22 22 49 39 60 39 11 0 39 -17 63 -38 70 -64 122 -64 188
-1 23 22 49 39 60 39 10 0 36 -16 57 -35 48 -42 89 -60 108 -44 16 13 7 39
-14 39 -9 0 -33 16 -53 36 -36 35 -84 53 -126 46 -12 -2 -40 -21 -62 -43 -52
-50 -76 -50 -129 1 -37 36 -47 40 -90 40 -44 0 -54 -4 -91 -40 -22 -22 -50
-40 -60 -40 -11 0 -41 18 -66 40 -25 22 -52 40 -60 40 -7 0 -19 2 -27 4 -7 2
-23 1 -35 -1z"/>
</g>
</svg>
