<?xml version="1.0" encoding="UTF-8" standalone="no"?>
<svg
   xmlns:dc="http://purl.org/dc/elements/1.1/"
   xmlns:cc="http://creativecommons.org/ns#"
   xmlns:rdf="http://www.w3.org/1999/02/22-rdf-syntax-ns#"
   xmlns:svg="http://www.w3.org/2000/svg"
   xmlns="http://www.w3.org/2000/svg"
   xmlns:sodipodi="http://sodipodi.sourceforge.net/DTD/sodipodi-0.dtd"
   xmlns:inkscape="http://www.inkscape.org/namespaces/inkscape"
   version="1.0"
   width="240.000000pt"
   height="240.000000pt"
   viewBox="0 0 240.000000 240.000000"
   preserveAspectRatio="xMidYMid meet"
   id="svg12"
   sodipodi:docname="swimming33.svg"
   inkscape:version="0.92.3 (2405546, 2018-03-11)">
  <defs
     id="defs16">
    <filter
       style="color-interpolation-filters:sRGB;"
       inkscape:label="Lightness-Contrast"
       id="filter3744">
      <feColorMatrix
         values="1 0 0 0.3299 -0 0 1 0 0.3299 -0 0 0 1 0.3299 -0 0 0 0 1 0"
         id="feColorMatrix3742" />
    </filter>
  </defs>
  <sodipodi:namedview
     pagecolor="#ffffff"
     bordercolor="#666666"
     borderopacity="1"
     objecttolerance="10"
     gridtolerance="10"
     guidetolerance="10"
     inkscape:pageopacity="0"
     inkscape:pageshadow="2"
     inkscape:window-width="1023"
     inkscape:window-height="480"
     id="namedview14"
     showgrid="false"
     inkscape:zoom="0.7375"
     inkscape:cx="160"
     inkscape:cy="160"
     inkscape:window-x="667"
     inkscape:window-y="198"
     inkscape:window-maximized="0"
     inkscape:current-layer="svg12" />
  <metadata
     id="metadata2">
Created by potrace 1.16, written by Peter Selinger 2001-2019
<rdf:RDF>
  <cc:Work
     rdf:about="">
    <dc:format>image/svg+xml</dc:format>
    <dc:type
       rdf:resource="http://purl.org/dc/dcmitype/StillImage" />
    <dc:title></dc:title>
  </cc:Work>
</rdf:RDF>
</metadata>
  <g
     transform="translate(0.000000,240.000000) scale(0.100000,-0.100000)"
     fill="#000000"
     stroke="none"
     id="g10"
     style="filter:url(#filter3744)">
    <path
       d="M1065 1945 c-200 -37 -376 -151 -489 -318 -104 -154 -151 -342 -128 -517 39 -292 226 -525 500 -623 318 -115 679 1 873 281 181 261 181 603 0 864 -169 244 -466 367 -756 313z m449 -474 c91 -60 88 -199 -6 -247 -97 -50 -208 16 -208 123 0 55 22 98 63 123 42 26 113 26 151 1z m-380 -17 c9 -3 49 -47 88 -98 39 -50 100 -124 135 -164 57 -66 77 -99 54 -90 -14 5 -102 107 -186 213 -43 55 -85 106 -93 113 -20 15 -344 17 -373 2 -22 -12 -26 -59 -7 -78 8 -8 59 -12 164 -12 l152 0 37 -45 c20 -25 35 -50 33 -55 -6 -19 -152 -139 -161 -133 -6 3 23 36 63 73 l74 66 -30 37 -29 37 -152 0 -152 0 -20 26 c-27 35 -26 59 4 89 24 25 26 25 204 25 99 0 187 -3 195 -6z m-191 -358 c18 -7 43 -25 56 -40 32 -34 61 -33 96 4 59 61 139 63 204 4 47 -42 69 -43 106 -4 58 61 139 63 203 6 20 -18 47 -36 59 -40 31 -10 46 -32 39 -60 -12 -50 -87 -45 -140 10 -41 42 -64 43 -101 4 -60 -62 -150 -64 -208 -5 -42 43 -65 44 -102 5 -60 -62 -150 -64 -208 -5 -42 43 -65 44 -102 5 -55 -57 -138 -65 -151 -13 -5 20 -2 31 16 45 12 10 28 18 34 18 7 0 23 12 37 26 46 50 104 65 162 40z"
       id="path4" />
    <path
       d="M1374 1451 c-39 -24 -58 -69 -51 -124 19 -143 237 -122 237 23 0 93 -105 150 -186 101z"
       id="path6" />
    <path
       d="M863 1083 c-12 -2 -40 -22 -62 -44 -23 -21 -50 -39 -60 -39 -23 0 -34 -25 -18 -38 21 -18 66 -1 107 39 22 22 49 39 60 39 11 0 37 -16 58 -35 74 -66 127 -67 192 -4 22 22 49 39 60 39 11 0 39 -17 63 -38 70 -64 122 -64 188 -1 23 22 49 39 60 39 10 0 36 -16 57 -35 48 -42 89 -60 108 -44 16 13 7 39 -14 39 -9 0 -33 16 -53 36 -36 35 -84 53 -126 46 -12 -2 -40 -21 -62 -43 -52 -50 -76 -50 -129 1 -37 36 -47 40 -90 40 -44 0 -54 -4 -91 -40 -22 -22 -50 -40 -60 -40 -11 0 -41 18 -66 40 -25 22 -52 40 -60 40 -7 0 -19 2 -27 4 -7 2 -23 1 -35 -1z"
       id="path8" />
  </g>
</svg>
